<?xml version="1.0" encoding="utf-8"?>
<!-- Generator: Adobe Illustrator 19.1.0, SVG Export Plug-In . SVG Version: 6.00 Build 0)  -->
<svg version="1.1" id="Layer_1" xmlns="http://www.w3.org/2000/svg" xmlns:xlink="http://www.w3.org/1999/xlink" x="0px" y="0px"
	 viewBox="0 0 60 60" enable-background="new 0 0 60 60" xml:space="preserve">
<g id="XMLID_457_">
	<path fill="#FFFFFF" d="M30,57.2c-0.2,0-0.3,0-0.4-0.1L22,53.4c-0.5-0.2-0.7-0.8-0.5-1.3c0.2-0.5,0.8-0.7,1.3-0.5l7.1,3.5l22-12.8
		V17.6L29.5,4.2L8,17.1v25.4C11.9,45,17.9,48,19.8,47c0.1-0.1,0.5-0.2,0.5-1.1c0.3-6.1-0.2-26.1-0.2-26.3c0-0.6,0.4-1,1-1
		c0.6,0,1,0.4,1,1c0,0.8,0.6,20.2,0.2,26.5c-0.1,1.7-0.9,2.4-1.6,2.8C17,50.7,8.2,45,6.4,43.8C6.2,43.6,6,43.3,6,43V16.5
		c0-0.4,0.2-0.7,0.5-0.9L29,2.1c0.3-0.2,0.7-0.2,1,0l23.5,14c0.3,0.2,0.5,0.5,0.5,0.9v25.9c0,0.4-0.2,0.7-0.5,0.9l-23,13.4
		C30.4,57.2,30.2,57.2,30,57.2z"/>
</g>
<g id="XMLID_456_">
	<path fill="#FFFFFF" d="M35.5,40.6c-0.2,0-0.5,0.2-0.7,0.2c-5.1-0.3-8.3-2.8-8.3-6.8h2c0,4,4.9,4.7,6.4,4.8
		c3.9,0.2,8.3-1.6,8.6-4.3c0.2-2.1-2.8-2.6-7.4-3.1c-4.5-0.5-9.2-1.1-9.6-4.7c-0.2-1.8,0.8-3.6,2.8-5c2.9-2.1,8-3.4,11.8-1.7
		c1.8,0.8,4,2.6,4.4,6.5l-2,0.2c-0.2-2.4-1.3-4-3.2-4.9c-3-1.4-7.4-0.3-9.8,1.5c-0.8,0.6-2.1,1.8-2,3.2c0.2,2.1,4.1,2.5,7.8,2.9
		c4.5,0.5,9.6,1.1,9.2,5.3C45.1,38.4,40.2,40.6,35.5,40.6z"/>
</g>
</svg>
