<?xml version="1.0" encoding="utf-8"?>
<!-- Generator: Adobe Illustrator 19.1.0, SVG Export Plug-In . SVG Version: 6.00 Build 0)  -->
<svg version="1.1" id="Layer_1" xmlns="http://www.w3.org/2000/svg" xmlns:xlink="http://www.w3.org/1999/xlink" x="0px" y="0px"
	 viewBox="0 0 80 80" enable-background="new 0 0 80 80" xml:space="preserve">
<path id="XMLID_445_" fill="none" stroke="#FFFFFF" stroke-width="2" stroke-linecap="round" stroke-miterlimit="10" d="M19.3,49.9
	l3.1-16.8c0,0,11.9-1.8,10.5,5.1c-0.8,7.5-11.4,5.4-11.4,5.4"/>
<path id="XMLID_444_" fill="none" stroke="#FFFFFF" stroke-width="2" stroke-linecap="round" stroke-miterlimit="10" d="M49.6,49.9
	l3.1-16.8c0,0,11.9-1.8,10.5,5.1c-0.8,7.5-11.4,5.4-11.4,5.4"/>
<line id="XMLID_443_" fill="none" stroke="#FFFFFF" stroke-width="2" stroke-linecap="round" stroke-miterlimit="10" x1="35.9" y1="44.8" x2="39.2" y2="26.8"/>
<path id="XMLID_441_" fill="none" stroke="#FFFFFF" stroke-width="2" stroke-linecap="round" stroke-miterlimit="10" d="M38,33h5.5
	c2.2,0,3.7,1.8,3.3,3.9l-1.5,7.9"/>
<g id="XMLID_439_">
	<path fill="#FFFFFF" d="M40.2,59.1c-19.9,0-36-8.6-36-19.2c0-10.6,16.1-19.2,36-19.2s36,8.6,36,19.2C76.2,50.5,60.1,59.1,40.2,59.1
		z M40.2,22.7c-18.4,0-34,7.9-34,17.2c0,9.3,15.6,17.2,34,17.2s34-7.9,34-17.2C74.2,30.6,58.7,22.7,40.2,22.7z"/>
</g>
</svg>
