<?xml version="1.0" encoding="utf-8"?>
<!-- Generator: Adobe Illustrator 19.1.0, SVG Export Plug-In . SVG Version: 6.00 Build 0)  -->
<svg version="1.1" id="Layer_1" xmlns="http://www.w3.org/2000/svg" xmlns:xlink="http://www.w3.org/1999/xlink" x="0px" y="0px"
	 viewBox="0 0 60 60" enable-background="new 0 0 60 60" xml:space="preserve">
<circle id="XMLID_455_" fill="#FFFFFF" cx="20.5" cy="8.1" r="2.5"/>
<circle id="XMLID_454_" fill="#FFFFFF" cx="35.5" cy="52.1" r="2.5"/>
<g id="XMLID_451_">
	<path id="XMLID_453_" fill="#FFFFFF" d="M13,44h-2.7C5.9,44,3,40.6,3,36.2V25.4C3,21,5.9,17,10.3,17h19.8H32v-2h-2H10.3
		C4.8,15,1,19.9,1,25.4v10.8c0,5.5,3.8,9.8,9.3,9.8H13V44z"/>
	<path id="XMLID_452_" fill="#FFFFFF" d="M48.3,15H43v2h5.3c4.4,0,8.7,4,8.7,8.4v10.8c0,4.4-4.3,7.8-8.7,7.8H25v2h23.3
		c5.5,0,10.7-4.3,10.7-9.8V25.4C59,19.9,53.8,15,48.3,15z"/>
</g>
<g id="XMLID_448_">
	<path id="XMLID_450_" fill="#FFFFFF" d="M42,44v5.2c0,4.4-4.3,7.8-8.7,7.8H22.5c-4.4,0-7.5-3.4-7.5-7.8V44h-2v5.2
		c0,5.5,4,9.8,9.5,9.8h10.8c5.5,0,10.7-4.3,10.7-9.8V44H42z"/>
	<path id="XMLID_449_" fill="#FFFFFF" d="M15,11.2C15,6.8,18.1,3,22.5,3h10.8c4.4,0,8.7,3.8,8.7,8.2V17h2v-5.8C44,5.7,38.8,1,33.3,1
		H22.5C17,1,13,5.7,13,11.2V17h2V11.2z"/>
</g>
<g id="XMLID_446_">
	<path fill="none" stroke="#FFFFFF" stroke-width="2" stroke-miterlimit="10" d="M14,44c0,0,0-3.1,0-7.1S18.9,30,25.5,30h5
		c6.6,0,12.5-3.7,12.5-8.1s0-7.9,0-7.9"/>
</g>
</svg>
