<?xml version="1.0" encoding="utf-8"?>
<!-- Generator: Adobe Illustrator 19.1.0, SVG Export Plug-In . SVG Version: 6.00 Build 0)  -->
<svg version="1.1" id="Layer_1" xmlns="http://www.w3.org/2000/svg" xmlns:xlink="http://www.w3.org/1999/xlink" x="0px" y="0px"
	 viewBox="0 0 26 26" enable-background="new 0 0 26 26" xml:space="preserve">
<g>
	<path fill="#FFFFFF" d="M13.4,7.9c0-0.4,0.1-0.7,0.4-1c0.6-0.6,1.5-0.6,2.1-0.1l7.1,6.7l-7.1,7.1c-0.6,0.6-1.5,0.6-2.1,0
		s-0.6-1.5,0-2.1l4.9-4.9l-4.9-4.6C13.5,8.7,13.4,8.3,13.4,7.9z"/>
</g>
<g>
	<line fill="#FFFFFF" x1="5" y1="14" x2="20" y2="14"/>
	<path fill="#FFFFFF" d="M20,15H5c-0.8,0-1.5-0.7-1.5-1.5S4.2,12,5,12h15c0.8,0,1.5,0.7,1.5,1.5S20.8,15,20,15z"/>
</g>
</svg>
