<?xml version="1.0" encoding="utf-8"?>
<!-- Generator: Adobe Illustrator 19.1.0, SVG Export Plug-In . SVG Version: 6.00 Build 0)  -->
<svg version="1.1" id="Layer_1" xmlns="http://www.w3.org/2000/svg" xmlns:xlink="http://www.w3.org/1999/xlink" x="0px" y="0px"
	 viewBox="0 0 60 60" enable-background="new 0 0 60 60" xml:space="preserve">
<path fill="#7A56A1" d="M27.6,21.4c-0.4,0-0.2,0.4-0.5,0.4C26.9,21.8,27,21.3,27.6,21.4z M28.7,21.4c0.4-0.1,0.4,0.3,0.6,0.2
	C29.5,21.6,29.3,21.2,28.7,21.4z M41.5,45.8c-1.1,0.6-2.6,1.8-3.2,2.4c-0.4,0.4-2.1,0.6-3.1,0.1c-1.1-0.6-0.5-1.5-2.3-1.5
	c-0.9,0-1.7,0-2.6,0c-0.7,0-1.5,0-2.3,0.1c-2.6,0-2.9,1.7-4.5,1.7c-1.1,0-2.6-0.9-5.1-1.5c-1.7-0.4-3.4-0.4-3.8-1.2
	c-0.4-0.8,0.4-1.6,0.5-2.4c0.1-1-0.8-2.4-0.1-2.9c0.5-0.4,1.6-0.1,2.3-0.5c0.8-0.4,1.1-0.8,1.1-1.7c0.3,0.9,0,1.7-0.6,2.1
	c-0.4,0.2-1.1,0.3-1.6,0.3c-0.4,0-0.7,0-0.9,0.2c-0.2,0.2-0.1,0.6,0.1,1.1c0.2,0.5,0.5,0.8,0.4,1.5c0,0.6-0.7,1.4-0.6,1.9
	c0,0.2,0.2,0.4,0.7,0.5c0.8,0.2,2.2,0.4,3.6,0.8c1.6,0.4,3.2,1.1,4.2,1c3-0.4,1.3-3.6,0.8-4.4c-2.5-4-4.2-6.6-5.5-5.6
	c-0.3,0.3-0.4-0.7-0.3-1c0.1-1.3,0.7-1.8,1.1-2.8c0.7-1.9,1.3-4.1,2.5-5.2c0.9-1.1,2.2-2.9,2.4-3.8c-0.2-2.1-0.3-4.2-0.3-6.1
	c0-2,0.3-3.8,2.6-5c0.6-0.3,1.3-0.4,2-0.4c1.4,0,2.9,0.4,3.8,1.1c1.5,1.1,2.5,3.6,2.4,5.3c-0.1,1.3,0.2,2.7,0.6,4.2
	c0.5,1.7,1.3,2.9,2.6,4.3c1.6,1.7,2.8,4.9,3.1,7c0.3,1.9-0.1,3.1-0.5,3.2c-0.6,0.1-1,2.1-3,2c-1.3-0.1-1.4-0.8-1.7-1.4
	c-0.6-1-1.1-0.7-1.4,0.4c-0.1,0.5,0,1.3,0.1,1.9c0.4,1.2,0.2,2.4,0,3.8c-0.4,2.7,1.9,3.2,3.5,1.9c1.5-1.3,1.9-1.5,3.8-2.1
	c2.9-1,1.9-1.9,0.4-2.4c-1.4-0.5-1.5-2.9-1-3.3c0.1,2.6,1.4,2.9,2,3.3C46.2,43.8,42.9,45.1,41.5,45.8z M34.9,38.3
	c0.3-0.3,0.6-0.4,1-0.4c0.1-1.6,2.5-1.4,3.3-0.8c0-0.4-0.8-0.7-1.1-0.8c0.5-1.8,0.3-2.5-0.1-4.1c-0.3-1.3-1.4-3-2.3-3.5
	c0.2,0.2,0.7,0.8,1.1,1.6c0.8,1.5,1.6,3.7,1.1,5.5c-0.2,0.7-0.7,0.8-1,0.8c-1.4,0.1-0.6-1.6-1.2-4.1c-0.6-2.7-1.3-3-1.5-3.2
	c-0.8-3.6-1.7-3.2-1.9-4.6c-0.2-1.2,1-2.2-0.7-2.5c-0.5-0.1-1.3-0.6-1.6-0.7c-0.3,0-0.4-2,0.6-2c1.1-0.1,1.3,1.2,1.1,1.7
	c-0.3,0.5,0,0.7,0.6,0.5c0.4-0.1,0.2-1.3,0.3-1.5c-0.3-1.6-1-1.9-1.7-2c-2.7,0.2-1.5,3.2-1.8,2.9c-0.4-0.4-1.5,0-1.5-0.3
	c0-1.5-0.5-2.4-1.2-2.4c-0.8,0-1.1,1.1-1.2,1.7c0,0.6,0.4,1.8,0.6,1.7c0.2-0.1,0.5-0.4,0.2-0.4c-0.2,0-0.5-0.4-0.5-0.9
	c0-0.5,0.2-1,0.8-1c0.8,0,0.8,1.6,0.7,1.6c-0.3,0.2-0.6,0.5-0.6,0.6c-0.2,0.4-0.7,0.5-0.9,0.7c-0.3,0.3-0.4,0.7-0.2,0.9
	c0.9,0.5,0.6,1.1,1.9,1.1c0.8,0,1.4-0.1,2-0.3c0.4-0.1,1.8-0.4,2.1-0.9c0.1-0.2,0.3-0.2,0.4-0.2c0.2,0.1,0.2,0.5-0.3,0.6
	c-0.7,0.2-1.4,0.6-2,0.8c-0.6,0.2-0.8,0.3-1.4,0.5c-1.3,0.2-2.3-0.5-1.4,0.4c0.3,0.3,0.6,0.5,1.3,0.4c1.6-0.1,3.5-2,3.7-1.2
	c0,0.2-0.5,0.4-1,0.6c-1.5,0.8-2.6,2.3-3.6,1.7c-0.9-0.5-1.8-2.7-1.7-1.7c0,1.5-2,2.9-1.1,4.6c-0.6,0.2-2,3.1-2.2,4.6
	c-0.1,0.9,0.1,1.9-0.1,2.5c-0.3,0.9-1.6-0.8-1.2-2.9c0.1-0.4,0-0.4-0.1-0.3c-0.5,1-0.2,2.3,0.2,3.3c0.2,0.4,0.6,0.6,1,1
	c0.7,0.8,3.4,2.8,3.9,3.3c0.6,0.6,0.4,1.9-0.8,2c0.6,1.2,1.3,1.3,1.3,3.3c0.7-0.4,0.4-1.3,0.1-1.8c-0.2-0.4-0.5-0.6-0.4-0.7
	c0-0.1,0.4-0.4,0.6-0.1c0.7,0.7,1.9,0.9,3.3,0.7c1.4-0.2,2.8-0.6,3.5-1.7c0.3-0.5,0.5-0.7,0.7-0.6c0.1,0.1,0.2,0.4,0.2,1
	c0,0.6-0.3,1.3-0.4,1.8c-0.2,0.6-0.2,1,0.3,1c0.2-1.1,0.5-2.2,0.6-3.3C34.9,41.8,34,39.4,34.9,38.3z M26.7,20.5c0,0.2,0,0.4,0.1,0.4
	c0,0,0.1,0,0.1-0.1c0.1-0.5-0.2-0.8-0.3-0.9c-0.2-0.1-0.2,0.3-0.1,0.3C26.6,20.2,26.7,20.3,26.7,20.5z M31.1,19.8
	c-0.2,0-0.2,0.1-0.1,0.2c0.2,0,0.3,0.3,0.3,0.6c0,0,0.2,0,0.2-0.1C31.6,20,31.2,19.8,31.1,19.8z"/>
</svg>
